<?xml version="1.0" standalone="no"?>
<!DOCTYPE svg PUBLIC "-//W3C//DTD SVG 20010904//EN"
 "http://www.w3.org/TR/2001/REC-SVG-20010904/DTD/svg10.dtd">
<svg version="1.0" xmlns="http://www.w3.org/2000/svg"
 width="626.000000pt" height="454.000000pt" viewBox="0 0 626.000000 454.000000"
 preserveAspectRatio="xMidYMid meet">

<g transform="translate(0.000000,454.000000) scale(0.100000,-0.100000)"
fill="#000000" stroke="none">
<path d="M0 2270 l0 -2270 3130 0 3130 0 0 2270 0 2270 -3130 0 -3130 0 0
-2270z m1183 1990 c-4 -14 4 -28 26 -47 28 -25 29 -28 14 -45 -17 -19 -11 -23
31 -18 31 3 70 -20 101 -60 42 -53 103 -92 138 -87 19 2 27 -1 27 -11 0 -9 -6
-12 -15 -8 -10 4 -19 -3 -25 -18 -7 -18 -14 -23 -29 -19 -24 6 -25 3 -9 -31
29 -64 107 -65 109 -1 l1 30 8 -32 c10 -44 1 -83 -19 -83 -13 0 -15 -9 -13
-49 3 -34 -1 -57 -12 -73 -25 -35 -20 -64 17 -92 24 -19 28 -26 14 -26 -10 0
-29 7 -43 16 -35 23 -50 6 -47 -55 2 -44 -1 -51 -37 -86 -22 -21 -45 -54 -51
-72 -10 -31 -12 -33 -24 -16 -13 17 -14 17 -32 0 -11 -9 -23 -17 -28 -17 -16
0 -45 -33 -45 -51 0 -10 10 -25 22 -33 21 -15 16 -16 -67 -10 -60 3 -95 1
-105 -6 -8 -7 -11 -13 -5 -16 27 -12 37 -23 30 -34 -6 -10 -10 -9 -17 4 -5 9
-19 16 -31 16 -23 0 -47 17 -47 32 0 4 7 8 15 8 7 0 18 6 22 13 4 8 25 17 47
20 21 3 56 15 77 25 40 20 49 17 27 -8 -11 -12 -10 -12 5 -1 9 7 17 18 17 23
0 14 62 64 75 60 5 -2 7 0 3 4 -4 4 8 24 27 45 43 47 92 141 70 133 -8 -4 -15
-9 -15 -13 0 -11 -73 -65 -91 -66 -9 -1 -23 -6 -31 -13 -21 -17 -68 -33 -68
-23 0 5 6 12 13 15 6 3 2 3 -11 0 -13 -3 -52 -6 -86 -5 -58 0 -64 -2 -74 -24
-8 -17 -20 -25 -37 -25 -38 0 -122 39 -122 56 0 20 45 30 71 15 12 -6 3 4 -18
24 -22 19 -45 35 -53 35 -7 0 -13 3 -13 8 0 4 -15 23 -34 42 -30 32 -65 87
-67 107 -2 11 -9 33 -21 65 -5 15 -7 32 -3 37 3 6 -2 11 -13 11 -30 0 -84 -67
-77 -93 4 -16 3 -18 -3 -7 -16 26 -24 73 -11 65 8 -5 8 -2 1 12 -6 10 -9 44
-6 75 l4 57 -23 -22 c-12 -12 -19 -23 -15 -25 10 -5 -2 -32 -14 -32 -5 0 -6 6
-2 13 6 10 4 10 -7 0 -19 -19 -29 -16 -29 8 0 12 20 40 45 65 39 37 44 47 35
63 -16 31 -12 39 26 51 26 9 39 21 46 42 l11 31 13 -24 13 -24 1 22 c0 16 8
25 25 29 19 5 25 13 25 34 0 27 2 28 46 27 52 -2 71 17 32 32 -21 8 -21 10 -5
16 13 5 27 0 46 -19 17 -17 38 -26 58 -26 42 0 49 14 18 34 -14 9 -25 22 -25
28 0 7 6 4 13 -6 10 -14 17 -15 41 -6 23 9 33 7 54 -7 59 -43 78 -53 100 -53
25 0 27 7 7 34 -10 13 -11 24 -4 37 13 25 18 24 12 -1z m107 -75 c0 -8 -4 -15
-9 -15 -13 0 -22 16 -14 24 11 11 23 6 23 -9z m1259 -24 c122 -38 219 -123
274 -239 54 -114 49 -279 -12 -397 -36 -71 -126 -156 -207 -196 -66 -33 -73
-34 -189 -34 -115 0 -123 1 -187 33 -72 35 -154 110 -194 178 -132 223 -52
509 175 624 34 17 78 34 99 39 66 16 176 12 241 -8z m1390 0 c214 -67 352
-289 311 -501 -10 -54 -62 -174 -79 -184 -14 -9 -7 12 27 85 33 71 54 201 34
213 -14 8 -31 -11 -87 -97 -27 -42 -42 -74 -38 -84 4 -11 2 -14 -5 -9 -7 4
-12 2 -12 -6 0 -10 -3 -9 -11 2 -9 13 -10 13 -6 0 2 -8 10 -14 17 -12 6 1 10
-3 7 -10 -2 -7 -11 -11 -18 -10 -8 2 -11 0 -7 -4 4 -4 -1 -19 -12 -34 -11 -16
-20 -34 -21 -42 0 -11 -2 -11 -6 0 -4 10 -9 8 -20 -7 -8 -12 -21 -21 -29 -21
-8 0 -14 -4 -14 -9 0 -5 -7 -12 -15 -15 -14 -5 -14 -4 0 16 32 46 24 50 -102
47 -68 -1 -138 -8 -164 -16 -47 -15 -50 -14 -146 15 -26 8 -31 8 -26 -4 3 -8
10 -14 15 -14 6 0 5 -7 -2 -15 -16 -19 4 -44 64 -79 68 -39 132 -56 219 -57
91 -1 111 2 156 25 16 9 37 16 45 16 8 0 17 6 19 13 4 9 6 9 6 -1 1 -12 -62
-44 -117 -59 -15 -4 -72 -8 -128 -8 -96 0 -103 2 -177 38 -237 117 -325 389
-200 619 52 96 177 193 279 217 68 16 178 12 243 -8z m1452 -5 c89 -31 166
-84 213 -145 41 -55 85 -152 86 -189 l0 -23 -29 20 c-16 12 -35 21 -43 21 -23
0 -58 -39 -58 -65 0 -34 -10 -55 -26 -55 -7 0 -11 6 -8 13 3 8 -2 20 -11 27
-9 7 -15 8 -15 2 0 -6 5 -12 11 -14 8 -3 6 -10 -5 -21 -16 -15 -14 -18 23 -37
22 -11 47 -20 56 -20 8 0 15 -5 15 -12 0 -6 -3 -9 -6 -5 -13 13 -34 -23 -30
-52 4 -37 -1 -40 -14 -8 -6 15 -9 17 -9 6 -1 -21 25 -43 39 -34 19 12 39 62
37 91 -2 16 4 34 11 40 8 6 16 26 17 45 4 49 4 49 15 49 6 0 10 -7 10 -16 0
-8 4 -13 8 -10 4 2 7 -32 7 -77 0 -72 -4 -90 -32 -147 -55 -111 -162 -202
-275 -234 -58 -17 -90 -16 -196 10 -35 8 -76 13 -91 9 -21 -4 -41 3 -86 33
-142 91 -212 230 -201 395 7 105 27 168 74 237 114 163 327 232 513 166z
m-4831 -96 c0 -11 -6 -20 -14 -20 -18 0 -29 16 -21 30 11 18 35 11 35 -10z
m70 -172 c0 -18 -2 -20 -9 -8 -6 8 -7 18 -5 22 9 14 14 9 14 -14z m-45 -48
c-3 -5 -1 -10 5 -10 6 0 8 -5 4 -11 -4 -8 -9 -7 -15 2 -7 12 -3 29 7 29 3 0 2
-4 -1 -10z m-11 -36 c9 -25 6 -41 -5 -19 -7 17 -9 16 -8 -10 2 -63 -1 -118 -6
-113 -4 3 -7 40 -9 82 -2 56 0 76 9 76 7 0 16 -7 19 -16z m1016 -34 c0 -5 -4
-10 -10 -10 -5 0 -10 5 -10 10 0 6 5 10 10 10 6 0 10 -4 10 -10z m4010 -76 c0
-8 -5 -12 -10 -9 -6 4 -8 11 -5 16 9 14 15 11 15 -7z m-4828 -65 c20 -11 31
-46 26 -80 -3 -23 -4 -23 -36 11 -19 19 -43 48 -54 64 l-21 28 34 -7 c19 -4
42 -11 51 -16z m-272 -23 c0 -3 -4 -8 -10 -11 -5 -3 -10 -1 -10 4 0 6 5 11 10
11 6 0 10 -2 10 -4z m122 -104 c4 -2 8 -9 8 -15 0 -6 7 -18 15 -27 11 -12 13
-24 7 -41 l-9 -23 -12 21 c-6 12 -11 30 -11 41 0 26 -10 33 -31 21 -15 -8 -17
-6 -13 6 4 9 -2 25 -11 35 -17 19 -17 21 0 40 19 21 19 21 34 -17 8 -21 18
-39 23 -41z m931 14 c7 -18 -1 -26 -25 -26 -18 0 -25 20 -11 33 11 12 31 8 36
-7z m2566 -98 c-58 -52 -69 -60 -69 -52 0 3 14 19 30 34 17 15 30 26 30 24 0
-2 8 4 18 14 11 9 17 21 14 26 -3 5 1 6 8 1 10 -6 1 -19 -31 -47z m-3324 -94
c14 -9 22 -20 19 -26 -3 -5 -11 -4 -20 3 -7 6 -21 8 -30 5 -13 -5 -14 -4 -6 7
14 17 -3 37 -31 37 -10 0 -15 5 -12 11 5 7 15 5 31 -5 13 -9 35 -23 49 -32z
m4355 -14 c8 -5 11 -10 5 -10 -5 0 -17 5 -25 10 -8 5 -10 10 -5 10 6 0 17 -5
25 -10z m-3970 -136 c0 -9 -5 -14 -12 -12 -18 6 -21 28 -4 28 9 0 16 -7 16
-16z m-240 -55 c0 -13 -7 -19 -22 -20 -22 -1 -22 -1 2 -8 21 -6 26 -3 34 21 6
18 16 28 28 28 16 0 19 -6 18 -32 -1 -18 -2 -40 -1 -48 2 -29 21 13 21 48 0
25 4 32 20 32 17 0 20 -7 20 -42 0 -24 -3 -54 -7 -66 -5 -21 -10 -23 -42 -17
-20 3 -41 12 -47 20 -9 12 -13 11 -27 -6 -18 -20 -52 -25 -76 -10 -21 13 -6
39 21 36 13 -1 15 0 6 2 -30 8 -42 31 -30 58 17 37 82 41 82 4z m228 18 c7 -5
12 -30 12 -63 0 -51 -1 -54 -26 -54 -24 0 -25 2 -19 39 4 24 2 42 -4 46 -7 4
-11 -9 -11 -38 0 -43 -10 -57 -41 -57 -10 0 -13 123 -3 133 9 8 75 4 92 -6z
m994 4 c3 -1 11 -13 16 -28 7 -17 11 -21 11 -11 1 10 12 25 26 34 23 15 27 15
50 0 37 -24 33 -60 -7 -74 -31 -11 -31 -11 -5 -8 24 3 28 0 25 -18 -2 -17 -10
-21 -38 -21 -27 0 -37 6 -47 25 -12 24 -13 25 -13 3 0 -18 -6 -23 -25 -23 -23
0 -25 4 -27 48 l-2 47 -3 -47 c-4 -42 -7 -48 -26 -48 -20 0 -22 5 -20 48 2 49
-1 43 -12 -20 -4 -29 -11 -38 -25 -38 -18 0 -20 7 -20 64 l0 65 38 3 c31 3 76
2 104 -1z m229 -12 c19 -19 22 -19 38 -5 25 22 71 21 71 -2 0 -9 -10 -22 -22
-27 -13 -6 -23 -17 -23 -25 0 -10 8 -14 23 -13 17 2 22 -2 22 -22 0 -20 -5
-25 -27 -25 -32 0 -63 26 -63 52 0 11 -5 16 -11 12 -6 -3 -8 -16 -5 -29 4 -16
1 -25 -11 -29 -9 -4 -17 -5 -18 -4 -1 2 -7 12 -13 23 -11 19 -11 19 -12 -2 0
-16 -6 -23 -20 -23 -18 0 -20 7 -20 64 0 42 4 66 13 69 27 12 58 6 78 -14z
m323 5 c18 -17 20 -42 7 -63 -6 -9 -6 -22 0 -32 6 -12 4 -19 -7 -23 -20 -8
-34 1 -34 20 0 8 -4 14 -10 14 -5 0 -10 -9 -10 -20 0 -13 -7 -20 -20 -20 -17
0 -20 7 -22 53 l-1 52 -6 -50 c-6 -52 -4 -51 -64 -47 -29 2 -43 33 -39 85 3
31 7 37 26 37 22 0 23 -3 18 -46 -3 -34 -2 -45 7 -40 6 4 11 25 11 46 0 37 1
39 38 43 76 8 91 7 106 -9z m997 -5 l20 -20 6 20 c4 17 12 20 45 18 24 -2 45
-10 53 -20 15 -21 25 -22 25 -2 0 8 9 15 20 15 17 0 20 -7 20 -47 0 -35 3 -44
10 -33 5 8 10 30 10 48 0 27 4 32 23 32 20 0 22 -4 19 -42 -6 -87 -9 -91 -50
-83 -20 3 -43 14 -49 23 -12 15 -13 14 -13 -1 0 -12 -8 -17 -29 -17 -28 0 -28
1 -23 45 3 29 1 45 -6 45 -6 0 -12 -21 -14 -47 -3 -41 -6 -48 -25 -51 -20 -3
-23 1 -23 27 0 33 -20 41 -50 20 -12 -8 -9 -9 12 -5 25 6 27 4 19 -16 -12 -32
-54 -36 -75 -6 -23 32 -20 65 9 93 29 30 39 31 66 4z m340 11 c5 0 9 -9 9 -20
0 -15 -7 -20 -27 -21 l-28 -2 27 -4 c34 -5 43 -29 23 -60 -21 -32 -78 -30 -83
3 -3 18 1 21 25 17 l28 -4 -25 13 c-34 18 -37 52 -8 72 13 9 29 14 36 11 8 -3
18 -5 23 -5z m1009 -10 c25 -25 26 -60 3 -60 -10 0 -25 -5 -33 -11 -12 -8 -9
-9 13 -5 30 7 32 4 17 -25 -24 -43 -90 -7 -90 49 0 23 40 72 60 72 5 0 19 -9
30 -20z m228 4 c12 -8 22 -10 22 -5 0 6 22 11 50 11 42 0 50 -3 50 -19 0 -10
-7 -21 -15 -25 -10 -3 -15 -19 -15 -46 0 -33 -3 -40 -20 -40 -17 0 -20 7 -20
45 0 31 -4 45 -13 45 -19 0 -37 -43 -26 -61 15 -25 -24 -30 -43 -5 l-18 21 0
-22 c0 -20 -4 -23 -39 -19 -21 1 -43 6 -50 10 -7 4 -18 3 -25 -3 -13 -11 -46
-5 -46 8 0 4 7 31 15 59 14 47 19 52 44 52 25 0 30 -5 43 -52 l16 -53 1 52 c1
31 6 53 14 56 24 10 53 7 75 -9z m-2504 -6 c5 -10 7 -10 12 0 3 6 17 12 31 12
l25 0 -21 -36 c-12 -19 -21 -48 -21 -65 0 -24 -4 -29 -25 -29 -21 0 -25 5 -25
33 -1 17 -7 43 -15 57 -8 14 -14 28 -15 33 0 12 48 8 54 -5z m766 -7 c0 -29
18 -35 22 -9 2 15 11 24 26 26 22 3 23 1 17 -30 -25 -115 -62 -131 -93 -39
-21 63 -20 71 10 71 11 0 18 -7 18 -19z m1910 -10 c0 -17 5 -33 10 -36 6 -4
10 8 10 29 0 32 3 36 25 36 25 0 26 -1 23 -62 -3 -57 -5 -63 -25 -66 -18 -3
-23 2 -23 17 0 12 -4 21 -10 21 -5 0 -10 -9 -10 -20 0 -13 -7 -20 -20 -20 -18
0 -20 7 -20 65 0 58 2 65 20 65 15 0 20 -7 20 -29z m-2969 -271 c235 -45 402
-281 360 -508 -55 -299 -366 -464 -633 -338 -86 41 -219 170 -202 197 3 5 1 9
-4 9 -19 0 -44 88 -49 171 -9 134 26 232 116 331 104 114 261 166 412 138z
m2870 0 c275 -51 439 -357 330 -614 l-20 -45 70 -57 c139 -114 107 -148 -71
-74 -81 33 -84 34 -75 20 3 -5 1 -10 -6 -10 -7 0 -35 -15 -63 -33 -74 -49
-131 -68 -217 -74 -210 -15 -391 106 -459 308 -19 54 -21 80 -18 167 4 78 2
105 -9 114 -7 6 -11 13 -9 15 3 3 -16 23 -42 45 -153 129 -133 179 40 97 l87
-42 67 63 c116 108 246 148 395 120z m-940 -70 c28 -16 24 -68 -10 -121 -30
-47 -86 -108 -162 -176 -43 -38 -47 -45 -53 -104 -13 -119 -89 -229 -190 -279
-67 -32 -185 -39 -257 -16 l-51 17 -86 -44 c-207 -106 -342 -126 -342 -51 0
47 43 109 146 213 l103 103 -6 58 c-9 92 23 184 92 258 76 83 132 106 251 107
83 0 96 -3 152 -32 l62 -32 78 36 c132 62 231 85 273 63z m701 -962 c21 -18
27 -39 16 -61 -5 -10 -6 -26 -2 -35 5 -12 12 -2 24 38 16 50 20 55 46 55 25 0
30 -5 44 -50 l15 -50 3 53 c2 31 8 52 15 53 7 0 24 2 39 4 40 5 58 -18 58 -76
0 -46 -2 -49 -25 -49 -23 0 -25 4 -26 48 -1 48 -3 45 -14 -20 -6 -36 -6 -36
-50 -35 -25 1 -45 5 -45 10 0 4 -7 7 -15 7 -8 0 -15 -4 -15 -8 0 -5 -20 -8
-45 -8 -34 1 -46 6 -54 21 -9 19 -10 19 -10 -2 -1 -16 -7 -23 -21 -23 -18 0
-20 7 -20 64 0 42 4 66 13 69 23 10 53 7 69 -5z m-3991 -17 c19 -16 25 -16 37
-5 7 8 27 14 43 14 22 0 29 -5 29 -20 0 -14 -7 -20 -22 -21 -22 -1 -22 -1 2
-8 28 -8 39 -43 20 -66 -18 -22 -134 -14 -138 8 -5 24 -22 21 -22 -3 0 -17 -6
-19 -37 -17 -21 1 -44 6 -52 11 -8 5 -16 4 -20 -3 -5 -7 -23 -9 -54 -5 l-47 7
-2 46 -2 46 -3 -47 c-4 -43 -7 -48 -29 -48 -23 0 -24 2 -18 40 4 27 3 40 -5
40 -6 0 -11 -18 -11 -46 0 -41 -2 -45 -22 -42 -13 2 -23 9 -22 16 1 6 2 34 3
62 l1 50 70 -1 c78 -1 89 -10 91 -71 1 -30 2 -28 16 20 14 46 19 52 43 52 24
0 29 -6 43 -52 l15 -53 1 47 c1 66 43 89 92 49z m1617 -9 c7 -9 9 -23 6 -32
-4 -8 -8 -28 -8 -45 -1 -37 -28 -45 -44 -13 l-11 23 0 -22 c-1 -16 -7 -23 -21
-23 -18 0 -20 7 -20 64 0 53 3 65 18 69 27 8 66 -2 80 -21z m1236 18 c20 -7
26 -17 26 -39 0 -16 -5 -33 -10 -36 -8 -5 -7 -12 1 -22 10 -12 10 -16 -2 -24
-21 -13 -27 -11 -35 13 l-7 23 -8 -23 c-6 -15 -15 -22 -26 -20 -15 3 -18 13
-15 63 4 74 19 87 76 65z m146 -69 c0 -57 0 -58 -26 -53 -23 4 -26 8 -21 37 3
17 1 38 -3 45 -6 9 -10 -3 -12 -35 -3 -43 -6 -50 -25 -53 -22 -3 -23 0 -23 62
l0 65 38 3 c62 6 72 -5 72 -71z m834 34 c-4 -28 -2 -45 4 -45 11 0 22 33 22
68 0 15 6 22 20 22 22 0 24 -10 14 -84 -7 -47 -7 -47 -41 -43 -48 7 -63 23
-63 72 0 47 5 55 32 55 17 0 18 -5 12 -45z m469 0 c-4 -29 -2 -45 5 -45 6 0
14 20 18 45 5 35 10 45 25 45 11 0 19 -7 19 -17 1 -17 1 -17 11 0 6 11 22 17
44 17 28 0 35 -4 35 -20 0 -14 -7 -20 -22 -21 -22 -1 -22 -1 2 -8 31 -9 40
-49 14 -68 -33 -24 -90 -11 -79 19 4 9 16 14 33 12 17 -2 19 -1 7 2 -11 3 -24
10 -29 15 -18 17 -26 9 -26 -27 0 -35 -1 -36 -35 -31 -51 7 -65 23 -65 72 0
46 5 55 31 55 16 0 18 -6 12 -45z m-3285 23 c9 -9 12 -9 12 0 0 7 10 12 21 12
19 0 21 -4 15 -39 -3 -22 -2 -42 3 -45 10 -6 21 26 21 62 0 15 6 22 20 22 16
0 20 -7 20 -34 0 -18 -3 -47 -6 -64 -6 -28 -10 -31 -41 -30 -25 1 -39 8 -50
25 l-16 24 -11 -23 c-15 -29 -79 -33 -84 -5 -3 13 3 17 22 17 24 0 26 3 26 45
0 37 3 45 18 45 10 0 23 -5 30 -12z m216 -4 c15 -14 16 -14 16 0 0 13 13 16
75 16 68 0 75 -2 75 -20 0 -11 -4 -20 -9 -20 -6 0 -13 -20 -17 -45 -5 -35 -10
-45 -25 -45 -16 0 -19 8 -19 45 0 33 -4 45 -15 45 -9 0 -15 -9 -15 -22 0 -43
-12 -68 -31 -68 -15 0 -19 7 -19 37 0 34 -1 35 -18 20 -10 -10 -26 -17 -35
-17 -10 0 -17 -8 -17 -20 0 -13 -7 -20 -20 -20 -18 0 -20 7 -20 65 l0 65 39 0
c23 0 46 -7 55 -16z m264 4 c24 -24 14 -54 -20 -66 -31 -11 -31 -11 -5 -8 24
3 28 0 25 -18 -4 -27 -58 -35 -78 -11 -17 20 -17 80 0 100 15 18 61 20 78 3z
m942 -8 c0 -15 -7 -20 -27 -21 -21 -1 -23 -2 -8 -6 11 -3 27 -11 36 -19 14
-13 17 -10 28 26 10 34 16 40 39 40 25 0 29 -5 44 -60 15 -58 15 -59 -5 -66
-12 -4 -23 -2 -25 5 -5 14 -32 15 -32 1 0 -5 -9 -10 -20 -10 -12 0 -20 7 -20
16 0 14 -2 14 -16 -1 -22 -21 -78 -16 -82 8 -3 13 3 17 25 18 l28 1 -27 10
c-19 6 -28 17 -28 32 0 31 19 46 57 46 26 0 33 -4 33 -20z m263 -26 c-4 -28
-2 -44 5 -44 6 0 14 20 18 45 5 36 10 45 26 45 19 0 20 -4 14 -46 -3 -26 -6
-55 -6 -66 0 -14 -7 -18 -32 -16 -43 2 -68 24 -68 60 0 48 -28 35 -32 -14 -2
-35 -7 -43 -23 -43 -16 0 -21 8 -23 43 -2 28 -8 42 -18 42 -8 0 -14 9 -14 20
0 19 6 20 80 19 l79 -1 -6 -44z m58 -274 c253 -47 418 -307 354 -555 -54 -204
-223 -335 -435 -335 -244 0 -433 175 -448 416 -3 63 0 101 13 150 60 222 289
366 516 324z m-1564 -155 c13 -9 24 -31 28 -56 8 -45 45 -89 76 -89 20 0 19
-12 -9 -66 -23 -47 -101 -72 -165 -55 -58 17 -108 57 -99 79 5 15 4 16 -13 2
-17 -14 -18 -14 -6 8 7 13 10 26 7 30 -3 3 -6 0 -6 -7 0 -7 -4 -10 -9 -7 -5 3
-4 24 1 48 5 24 10 51 11 61 1 9 5 16 8 15 3 -2 13 5 23 14 11 12 26 16 44 12
19 -4 33 0 41 10 17 20 40 20 68 1z m-1323 -30 c11 -8 29 -15 40 -15 10 0 17
-3 13 -6 -3 -4 2 -14 12 -23 10 -9 22 -31 25 -49 6 -33 5 -33 -25 -27 -38 9
-56 -6 -53 -44 1 -23 -1 -28 -14 -24 -9 4 -13 2 -9 -4 8 -14 -63 -43 -103 -43
-40 0 -80 19 -73 36 3 8 0 14 -6 14 -6 0 -11 4 -11 9 0 4 28 13 63 19 l62 11
-62 -3 c-35 -1 -63 1 -63 6 0 4 6 8 13 8 8 0 7 3 -3 10 -12 8 -12 14 5 47 10
21 18 41 17 45 -1 4 16 6 37 6 39 0 87 23 74 35 -13 14 43 6 61 -8z m1037 -38
c-12 -12 -15 -56 -5 -81 4 -11 13 -14 30 -10 19 5 24 1 30 -21 4 -15 2 -31 -5
-38 -6 -6 -11 -27 -11 -47 0 -22 -8 -46 -19 -59 -10 -11 -22 -40 -25 -63 -5
-32 -9 -39 -16 -28 -6 10 -7 3 -4 -21 10 -58 -12 -55 -33 3 -27 78 -24 224 6
300 12 31 29 59 37 62 8 3 12 11 8 17 -5 8 -3 9 5 4 9 -5 10 -10 2 -18z m3155
-135 c-4 -3 -14 2 -24 12 -16 18 -16 18 6 6 13 -6 21 -14 18 -18z m-3070 -77
c-7 -18 -26 -20 -26 -2 0 18 24 41 28 27 2 -6 1 -17 -2 -25z m376 -1 c39 -27
51 -48 22 -37 -13 5 -15 2 -10 -15 6 -17 4 -21 -8 -16 -9 3 -16 2 -16 -4 0
-12 -65 -52 -85 -52 -13 0 -14 42 -1 108 11 51 40 56 98 16z m-1492 -18 c0 -2
-7 -9 -15 -16 -12 -10 -15 -10 -15 4 0 9 7 16 15 16 8 0 15 -2 15 -4z m1840
-61 c0 -26 -39 -128 -52 -137 -7 -4 -10 -8 -5 -8 15 0 -44 -76 -91 -116 -83
-71 -211 -121 -286 -112 -50 7 -35 15 38 21 40 3 88 13 105 21 17 9 32 16 33
16 19 1 48 15 48 23 0 6 3 8 6 4 3 -3 23 11 45 32 21 21 40 37 43 34 2 -2 7 5
11 16 3 12 11 21 17 21 6 0 8 3 5 6 -7 7 23 64 33 64 3 0 6 9 7 20 1 11 9 34
17 51 8 16 12 37 9 45 -3 7 0 14 6 14 6 0 11 -7 11 -15z m-455 -65 c3 -6 -1
-7 -9 -4 -18 7 -21 14 -7 14 6 0 13 -4 16 -10z m3096 -450 c5 0 14 -10 19 -22
l9 -23 0 23 c1 21 5 22 76 22 67 0 75 -2 75 -19 0 -11 -5 -21 -11 -23 -5 -2
-13 -22 -16 -46 -4 -32 -10 -42 -24 -42 -16 0 -19 8 -19 45 0 32 -4 45 -14 45
-9 0 -16 -17 -20 -45 -6 -36 -11 -45 -27 -45 -16 0 -19 7 -19 43 -1 32 -3 38
-10 25 -6 -9 -9 -27 -8 -39 4 -31 -25 -36 -40 -7 l-11 23 0 -22 c-1 -16 -7
-23 -21 -23 -18 0 -20 7 -20 64 0 59 2 65 23 69 12 2 28 3 35 1 8 -2 18 -4 23
-4z m-3249 -17 c17 -15 18 -15 18 0 0 11 8 17 25 17 23 0 25 -4 25 -40 0 -28
4 -40 14 -40 9 0 17 15 21 40 7 40 12 45 37 35 9 -4 12 -18 10 -47 -3 -28 -1
-39 7 -34 6 4 11 25 11 47 l0 39 75 0 c68 0 75 -2 75 -20 0 -11 -7 -20 -15
-20 -11 0 -15 -12 -15 -45 0 -38 -3 -45 -20 -45 -14 0 -20 7 -20 23 -1 72 -37
94 -42 25 -3 -40 -5 -43 -35 -46 -22 -2 -38 3 -52 17 -15 15 -21 17 -21 7 0
-16 -21 -26 -56 -26 -21 0 -24 5 -24 38 0 20 -4 32 -8 25 -4 -6 -20 -16 -35
-22 -15 -6 -27 -17 -27 -26 0 -8 -9 -15 -20 -15 -18 0 -20 7 -20 65 l0 65 37
0 c20 0 45 -7 55 -17z m418 -3 c24 -24 25 -48 4 -78 -29 -42 -104 -18 -104 35
0 28 33 63 60 63 11 0 29 -9 40 -20z m1040 -1 c10 -18 11 -18 30 1 25 25 62
26 84 1 17 -19 18 -19 37 0 37 37 91 16 102 -41 3 -16 5 -10 6 18 l1 42 43 0
c24 0 48 -5 55 -12 7 -7 12 -36 12 -65 0 -50 -1 -53 -25 -53 -23 0 -25 3 -25
51 0 31 -4 48 -10 44 -5 -3 -10 -26 -10 -51 0 -40 -2 -44 -25 -44 -19 0 -25 5
-25 22 0 20 -1 20 -18 5 -26 -24 -68 -21 -86 5 l-16 22 -16 -22 c-20 -30 -68
-30 -88 0 l-16 22 0 -22 c0 -17 -6 -22 -25 -22 -23 0 -25 4 -27 48 l-2 47 -3
-47 c-4 -43 -6 -48 -29 -48 -23 0 -24 3 -19 34 4 20 2 36 -4 40 -7 5 -11 -8
-11 -38 0 -43 -2 -46 -26 -46 -22 0 -25 3 -20 23 3 12 6 41 6 64 l0 43 70 -1
c58 -1 72 -5 80 -20z m1255 -6 l9 -21 11 21 c14 29 64 35 82 11 12 -16 13 -16
13 -1 0 14 10 17 50 17 54 0 66 -16 35 -46 -8 -9 -15 -31 -15 -50 0 -27 -4
-34 -20 -34 -17 0 -20 7 -20 45 0 33 -4 45 -15 45 -8 0 -15 -7 -15 -15 0 -8
-15 -19 -32 -25 -30 -9 -30 -9 -5 -6 24 3 28 0 25 -18 -2 -17 -10 -21 -38 -21
-27 0 -37 6 -47 25 -12 24 -13 25 -13 3 0 -18 -6 -23 -25 -23 -23 0 -25 4 -27
48 l-2 47 -3 -47 c-4 -46 -6 -49 -40 -48 -4 0 -6 19 -4 41 2 28 -1 39 -8 35
-6 -4 -11 -25 -11 -47 0 -32 -3 -39 -20 -39 -18 0 -20 7 -20 65 l0 66 73 -3
c63 -3 73 -6 82 -25z m316 8 c12 -18 12 -18 30 0 55 55 134 -26 82 -83 -24
-26 -68 -23 -90 7 -16 22 -22 24 -48 15 l-30 -10 28 4 c24 3 28 0 25 -18 -2
-17 -10 -21 -38 -21 -28 0 -37 5 -48 27 -11 23 -10 33 2 63 13 29 20 35 45 35
19 0 35 -7 42 -19z m497 7 c7 -7 12 -22 12 -35 0 -17 -8 -25 -32 -33 -30 -9
-30 -9 -5 -6 24 3 28 0 25 -18 -4 -27 -58 -35 -78 -11 -16 19 -16 66 0 94 12
24 58 29 78 9z m-5020 -10 c7 -7 13 -23 13 -37 1 -21 2 -22 6 -6 8 30 33 55
58 55 29 0 45 -19 45 -52 0 -25 -4 -28 -31 -28 -18 0 -28 -4 -24 -10 4 -6 15
-8 26 -5 14 5 19 2 19 -14 0 -43 -72 -33 -90 12 -8 21 -9 20 -9 -5 -1 -23 -6
-28 -26 -28 -23 0 -25 3 -25 53 0 37 -3 48 -10 37 -5 -8 -10 -32 -10 -52 0
-33 -3 -38 -22 -38 -22 0 -23 3 -20 65 l4 65 42 0 c23 0 47 -5 54 -12z m220
-4 c20 -14 22 -14 22 0 0 12 11 16 50 16 28 0 50 -4 50 -9 0 -4 12 -6 26 -3
26 5 26 4 19 -37 -4 -25 -3 -41 3 -41 13 0 22 25 22 61 0 23 4 29 21 29 21 0
21 -4 16 -61 -3 -34 -9 -65 -14 -70 -11 -11 -74 6 -85 23 -4 7 -8 25 -8 41 0
17 -5 27 -15 27 -11 0 -15 -12 -15 -45 0 -38 -3 -45 -19 -45 -15 0 -21 10 -26
40 -7 44 -19 51 -34 21 -6 -10 -22 -22 -36 -25 -16 -4 -25 -13 -25 -26 0 -13
-7 -20 -20 -20 -18 0 -20 7 -20 63 0 35 3 67 7 70 12 12 58 7 81 -9z m340 4
c7 -7 12 -21 13 -32 0 -15 2 -17 6 -6 10 28 36 50 58 50 29 0 45 -19 45 -52 0
-23 -4 -28 -25 -28 -14 0 -25 -5 -25 -11 0 -6 9 -8 20 -4 15 5 20 2 20 -14 0
-43 -72 -33 -90 12 -8 21 -9 20 -9 -5 -1 -23 -6 -28 -26 -28 -23 0 -25 4 -26
53 l-2 52 -10 -52 c-8 -41 -14 -53 -28 -53 -17 0 -19 8 -19 65 l0 65 43 0 c24
0 48 -5 55 -12z"/>
<path d="M599 3923 c-13 -16 -12 -17 4 -4 9 7 17 15 17 17 0 8 -8 3 -21 -13z"/>
<path d="M1480 3770 c0 -32 14 -40 24 -14 9 24 7 31 -9 38 -11 4 -15 -2 -15
-24z"/>
<path d="M1148 3293 c7 -3 16 -2 19 1 4 3 -2 6 -13 5 -11 0 -14 -3 -6 -6z"/>
<path d="M1080 3280 c-9 -6 -10 -10 -3 -10 6 0 15 5 18 10 8 12 4 12 -15 0z"/>
<path d="M2406 4135 c4 -8 7 -15 9 -15 2 0 5 7 9 15 3 9 0 15 -9 15 -9 0 -12
-6 -9 -15z"/>
<path d="M2770 3930 c0 -5 5 -10 11 -10 5 0 7 5 4 10 -3 6 -8 10 -11 10 -2 0
-4 -4 -4 -10z"/>
<path d="M2545 3920 c-11 -5 -14 -9 -6 -9 11 -1 11 -4 1 -16 -7 -9 -10 -18 -7
-22 4 -3 2 -12 -3 -18 -7 -9 -6 -16 5 -25 20 -17 19 -33 -5 -48 -11 -7 -20
-19 -20 -27 0 -9 -10 -15 -25 -15 -14 0 -25 -6 -26 -12 0 -7 -4 -4 -9 7 -7 17
-9 16 -9 -10 -1 -23 -4 -26 -11 -15 -15 24 -23 -13 -17 -83 2 -34 3 -57 0 -50
-3 9 -14 8 -45 -3 -22 -8 -58 -14 -80 -14 -25 0 -41 -5 -44 -15 -8 -20 -24 -9
-18 13 5 14 2 13 -11 -3 -17 -19 -17 -18 -11 24 4 24 13 53 21 64 23 32 18 44
-21 57 -19 7 -38 18 -41 26 -3 8 -14 14 -25 14 -10 0 -16 5 -13 10 3 6 -1 10
-9 10 -23 0 -56 -36 -56 -60 0 -13 -12 -28 -30 -38 -26 -15 -29 -21 -24 -47
11 -51 54 -125 101 -176 25 -27 48 -47 51 -45 2 3 13 -4 25 -15 36 -33 127
-61 214 -67 139 -8 266 46 348 148 17 21 34 35 39 32 5 -3 6 -1 3 5 -3 5 2 23
12 39 27 44 45 130 44 210 -1 79 -23 137 -48 128 -8 -4 -12 -11 -8 -17 14 -23
-90 1 -133 32 -50 35 -80 44 -109 31z m130 -166 c59 -24 66 -35 44 -65 -10
-14 -16 -29 -13 -32 13 -12 -90 -19 -124 -8 -21 6 -50 10 -66 9 -32 -3 -53 19
-43 46 4 11 18 16 44 16 26 0 47 8 67 25 34 29 41 30 91 9z"/>
<path d="M4109 4015 c17 -23 21 -37 16 -63 -4 -21 -1 -39 7 -50 11 -13 11 -14
-1 -7 -10 6 -12 4 -7 -4 5 -7 0 -21 -11 -33 -10 -12 -13 -18 -7 -15 18 11 14
-45 -5 -67 -15 -18 -15 -18 7 -7 17 9 22 20 22 54 0 48 13 67 47 67 13 0 23 2
23 4 0 16 -50 91 -78 118 -35 33 -35 33 -13 3z"/>
<path d="M5305 3534 c-11 -8 -25 -12 -32 -10 -7 3 -13 0 -13 -6 0 -6 -3 -8 -7
-5 -3 4 -12 2 -20 -4 -10 -9 -13 -8 -13 2 0 12 -2 12 -9 0 -11 -18 -110 -19
-121 -1 -5 8 -8 -1 -7 -24 1 -21 -4 -40 -10 -44 -11 -7 -30 -62 -22 -62 2 0
27 -9 55 -19 l50 -20 -4 30 c-2 16 -8 29 -13 29 -5 0 -9 7 -9 15 0 20 3 19 43
-8 18 -12 32 -27 30 -33 -2 -6 7 -20 21 -33 20 -19 24 -20 30 -6 3 9 2 14 -3
11 -5 -3 -11 1 -15 9 -4 10 6 17 37 25 69 18 70 18 63 45 -4 17 0 30 16 45 40
37 48 20 26 -52 -15 -51 -2 -66 38 -44 16 8 23 15 17 16 -19 0 -16 20 2 20 17
0 35 38 35 74 0 20 -10 27 -63 45 -74 25 -76 25 -102 5z"/>
<path d="M2340 3095 c0 -8 5 -15 10 -15 6 0 10 7 10 15 0 8 -4 15 -10 15 -5 0
-10 -7 -10 -15z"/>
<path d="M2670 3094 c0 -8 5 -12 10 -9 6 3 10 10 10 16 0 5 -4 9 -10 9 -5 0
-10 -7 -10 -16z"/>
<path d="M5240 3094 c0 -17 22 -14 28 4 2 7 -3 12 -12 12 -9 0 -16 -7 -16 -16z"/>
<path d="M2740 2441 c-5 -11 -10 -27 -10 -36 0 -10 -5 -13 -12 -9 -7 5 -9 2
-5 -9 4 -11 2 -14 -9 -10 -7 3 -14 1 -15 -3 0 -5 -2 -17 -4 -26 -4 -20 -3 -20
19 -12 9 3 16 11 16 16 0 6 11 32 25 59 13 27 20 49 15 49 -5 0 -14 -9 -20
-19z"/>
<path d="M2771 2373 c-17 -31 -31 -61 -31 -65 0 -5 -4 -7 -9 -3 -13 7 -30 -26
-23 -44 3 -10 0 -12 -11 -8 -11 4 -14 2 -10 -9 3 -7 0 -14 -6 -14 -6 0 -11 -5
-11 -11 0 -16 -92 -109 -108 -109 -7 0 -10 -4 -7 -10 3 -6 -5 -10 -19 -10 -14
0 -28 -5 -31 -11 -4 -6 -13 -8 -20 -5 -7 2 -15 2 -18 0 -7 -8 -157 -12 -157
-5 0 6 -24 10 -77 14 -17 2 -19 5 -10 16 10 12 8 13 -10 9 -14 -4 -23 -2 -23
5 0 7 -16 17 -35 23 -19 6 -35 10 -35 8 0 -1 18 -24 40 -49 22 -26 37 -51 34
-57 -5 -7 -2 -8 6 -3 8 5 18 2 26 -9 7 -10 14 -17 16 -16 1 1 27 -5 57 -14 69
-20 172 -21 238 -1 50 15 145 73 171 104 41 50 85 129 87 155 1 17 5 42 8 56
5 19 3 18 -7 -6 -16 -34 -43 -60 -53 -50 -3 3 0 18 7 33 21 46 59 143 55 143
-2 0 -17 -26 -34 -57z"/>
<path d="M2026 2233 c-10 -10 -7 -25 3 -19 5 4 11 1 13 -6 3 -7 7 -8 10 -3 7
12 -17 37 -26 28z"/>
<path d="M4690 2711 c0 -10 150 -151 160 -151 4 0 15 18 25 41 22 48 25 44
-82 89 -74 31 -103 37 -103 21z"/>
<path d="M5642 2370 c-12 -28 -26 -50 -32 -50 -12 0 -34 -48 -31 -68 2 -9 -4
-12 -18 -7 -16 5 -18 2 -14 -15 3 -11 0 -27 -7 -35 -14 -17 -35 -21 -25 -5 3
6 -1 7 -10 4 -14 -6 -14 -8 2 -21 17 -13 16 -14 -7 -8 -20 5 -22 4 -10 -5 35
-25 87 -48 96 -42 38 25 94 177 94 254 0 55 -15 54 -38 -2z"/>
<path d="M5636 2128 l-26 -33 59 -27 c33 -15 79 -30 103 -33 l43 -6 -70 65
c-38 36 -72 66 -76 66 -4 0 -19 -15 -33 -32z"/>
<path d="M5023 2122 c-9 -6 -1 -19 27 -45 123 -112 311 -125 454 -30 l39 26
-24 12 c-17 10 -28 10 -37 3 -7 -6 -15 -8 -19 -4 -3 3 -1 6 6 6 20 0 3 17 -29
28 -35 13 -41 6 -7 -8 l22 -9 -22 0 c-12 -1 -25 -6 -28 -11 -4 -6 -15 -8 -25
-5 -10 3 -21 1 -24 -4 -4 -6 -13 -8 -21 -4 -8 3 -15 1 -15 -5 0 -5 -17 -9 -37
-8 -21 2 -42 0 -47 -2 -17 -9 -66 -10 -60 -1 3 5 -7 9 -23 9 -57 0 -134 36
-116 54 9 8 1 7 -14 -2z"/>
<path d="M4275 2681 c17 -3 31 -14 33 -24 5 -24 -30 -78 -79 -122 -22 -20 -39
-39 -36 -41 6 -7 117 115 129 142 17 37 4 54 -39 53 -36 -1 -37 -2 -8 -8z"/>
<path d="M4160 2655 c-72 -32 -52 -32 25 0 33 13 53 24 45 24 -8 0 -40 -11
-70 -24z"/>
<path d="M4193 2629 c-29 -11 -53 -24 -53 -28 0 -15 31 -71 40 -71 10 0 100
99 100 111 0 14 -30 10 -87 -12z"/>
<path d="M4149 2384 c-1 -5 -1 -13 0 -17 1 -5 -3 -6 -8 -3 -5 4 -12 2 -16 -4
-3 -5 2 -10 12 -10 15 0 15 -2 3 -9 -8 -6 -19 -7 -25 -3 -5 3 -4 -1 3 -10 10
-13 10 -17 -3 -22 -8 -3 -15 -12 -15 -20 0 -21 -26 -67 -33 -59 -4 3 -7 -1 -7
-10 0 -9 -7 -17 -16 -17 -13 0 -14 -3 -5 -14 10 -12 8 -13 -11 -8 -20 5 -21 3
-10 -10 9 -11 10 -18 2 -23 -5 -3 -10 -1 -10 5 0 6 -5 8 -11 5 -6 -4 -8 -13
-6 -19 4 -9 -3 -11 -19 -8 -19 3 -23 1 -18 -12 9 -23 16 -21 75 24 60 45 112
116 105 142 -2 10 -1 16 4 13 9 -6 24 84 16 93 -3 3 -7 1 -7 -4z"/>
<path d="M3462 2185 c-93 -97 -105 -144 -37 -145 18 0 18 1 -3 16 -36 25 -26
51 48 127 38 39 68 72 66 74 -2 2 -35 -30 -74 -72z"/>
<path d="M3487 2161 c-64 -67 -72 -87 -29 -76 23 5 139 53 151 62 6 4 -49 73
-58 73 -4 0 -33 -27 -64 -59z"/>
<path d="M3600 2110 c-19 -11 -31 -19 -27 -20 11 0 67 29 67 35 0 7 -1 7 -40
-15z"/>
<path d="M3914 2109 c-3 -6 -23 -9 -44 -7 -21 2 -36 0 -34 -4 7 -11 102 -10
108 1 3 5 -1 11 -9 15 -8 3 -17 0 -21 -5z"/>
<path d="M3761 2106 c12 -10 60 -16 54 -6 -3 5 -18 10 -32 10 -15 0 -24 -2
-22 -4z"/>
<path d="M3530 2080 c-8 -5 -10 -10 -5 -10 6 0 17 5 25 10 8 5 11 10 5 10 -5
0 -17 -5 -25 -10z"/>
<path d="M3458 2053 c7 -3 16 -2 19 1 4 3 -2 6 -13 5 -11 0 -14 -3 -6 -6z"/>
<path d="M5080 1765 c0 -8 5 -15 10 -15 6 0 10 7 10 15 0 8 -4 15 -10 15 -5 0
-10 -7 -10 -15z"/>
<path d="M1090 1754 c0 -8 5 -12 10 -9 6 3 10 10 10 16 0 5 -4 9 -10 9 -5 0
-10 -7 -10 -16z"/>
<path d="M1144 1732 c-12 -19 -8 -42 7 -42 5 0 9 6 9 14 0 9 9 12 28 10 15 -2
19 -1 7 2 -11 3 -25 12 -31 19 -8 11 -12 11 -20 -3z"/>
<path d="M2690 1755 c0 -8 5 -15 10 -15 6 0 10 7 10 15 0 8 -4 15 -10 15 -5 0
-10 -7 -10 -15z"/>
<path d="M3950 1755 c0 -8 5 -15 10 -15 6 0 10 7 10 15 0 8 -4 15 -10 15 -5 0
-10 -7 -10 -15z"/>
<path d="M2310 1750 c0 -5 5 -10 10 -10 6 0 10 5 10 10 0 6 -4 10 -10 10 -5 0
-10 -4 -10 -10z"/>
<path d="M2220 1263 c-23 -4 -59 -38 -60 -56 0 -5 24 -7 53 -6 29 1 59 -1 65
-5 7 -4 12 -2 12 3 0 6 -4 11 -10 11 -15 0 -12 16 5 34 8 8 15 17 15 20 0 7
-41 6 -80 -1z"/>
<path d="M5450 405 c0 -8 5 -15 10 -15 6 0 10 7 10 15 0 8 -4 15 -10 15 -5 0
-10 -7 -10 -15z"/>
<path d="M2195 400 c-3 -5 -1 -10 4 -10 6 0 11 5 11 10 0 6 -2 10 -4 10 -3 0
-8 -4 -11 -10z"/>
<path d="M2604 399 c-8 -14 11 -33 25 -25 11 7 4 36 -9 36 -5 0 -12 -5 -16
-11z"/>
<path d="M3754 399 c-10 -17 13 -36 27 -22 12 12 4 33 -11 33 -5 0 -12 -5 -16
-11z"/>
<path d="M3874 399 c-10 -17 13 -36 27 -22 12 12 4 33 -11 33 -5 0 -12 -5 -16
-11z"/>
<path d="M5330 390 c0 -13 5 -20 13 -17 6 2 12 10 12 17 0 7 -6 15 -12 18 -8
2 -13 -5 -13 -18z"/>
<path d="M815 390 c-3 -5 -1 -10 4 -10 6 0 11 5 11 10 0 6 -2 10 -4 10 -3 0
-8 -4 -11 -10z"/>
<path d="M920 390 c0 -5 5 -10 10 -10 6 0 10 5 10 10 0 6 -4 10 -10 10 -5 0
-10 -4 -10 -10z"/>
<path d="M1375 390 c-3 -5 -1 -10 4 -10 6 0 11 5 11 10 0 6 -2 10 -4 10 -3 0
-8 -4 -11 -10z"/>
</g>
</svg>
