<?xml version="1.0" standalone="no"?>
<!DOCTYPE svg PUBLIC "-//W3C//DTD SVG 20010904//EN"
 "http://www.w3.org/TR/2001/REC-SVG-20010904/DTD/svg10.dtd">
<svg version="1.0" xmlns="http://www.w3.org/2000/svg"
 width="225.000000pt" height="225.000000pt" viewBox="0 0 225.000000 225.000000"
 preserveAspectRatio="xMidYMid meet">

<g transform="translate(0.000000,225.000000) scale(0.100000,-0.100000)"
fill="#000000" stroke="none">
<path d="M1599 2021 c-33 -33 -39 -45 -39 -82 0 -55 31 -107 70 -122 34 -13
35 -19 12 -102 l-17 -59 -75 -26 c-168 -58 -240 -112 -291 -216 -49 -99 -35
-99 158 2 90 47 163 83 163 80 0 -4 -20 -79 -45 -167 -54 -197 -52 -207 31
-147 88 63 140 174 159 334 7 61 7 62 55 88 26 14 50 26 54 26 3 0 12 -13 20
-29 37 -70 146 -79 203 -17 28 31 33 43 33 87 0 46 -4 55 -39 90 -55 55 -94
54 -207 -7 -47 -26 -87 -44 -89 -42 -6 6 29 117 48 155 48 92 -13 193 -116
193 -44 0 -53 -4 -88 -39z m150 -25 c29 -30 36 -76 17 -101 -15 -19 -16 -19
-6 7 28 79 -67 142 -125 83 -14 -13 -25 -33 -25 -44 0 -58 55 -100 105 -81 14
5 25 6 25 1 0 -10 -35 -21 -66 -21 -37 0 -74 44 -74 87 0 49 22 80 63 91 40
11 60 6 86 -22z m-38 -26 c21 -12 25 -50 7 -68 -21 -21 -57 -14 -70 14 -11 23
-10 29 11 45 27 22 27 22 52 9z m10 -221 c-10 -35 -25 -65 -35 -71 -15 -8 -17
-7 -13 8 3 11 11 39 17 64 11 41 24 59 42 60 3 0 -1 -27 -11 -61z m303 -11
c31 -28 43 -76 24 -101 -12 -16 -13 -14 -10 20 5 53 -23 87 -71 87 -54 0 -79
-28 -75 -82 3 -37 2 -40 -10 -25 -17 23 -8 70 20 100 29 31 88 31 122 1z
m-191 -48 c-4 -13 -58 -47 -172 -106 -91 -47 -171 -87 -177 -88 -7 -1 -18 -7
-25 -13 -22 -17 -159 -84 -159 -77 0 17 44 74 73 96 49 38 101 62 232 106 66
22 145 54 175 71 30 17 56 31 57 31 0 0 -1 -9 -4 -20z m165 8 c29 -29 -7 -86
-47 -73 -26 8 -38 50 -21 70 15 18 51 20 68 3z m12 -108 c-8 -6 -22 -10 -30
-9 -9 0 -5 6 10 14 27 14 44 10 20 -5z m-65 0 c3 -5 2 -10 -4 -10 -5 0 -13 5
-16 10 -3 6 -2 10 4 10 5 0 13 -4 16 -10z m-261 -82 c-10 -73 -33 -156 -53
-195 -19 -38 -81 -105 -81 -87 0 12 78 295 82 298 9 8 44 25 51 26 4 0 5 -19
1 -42z"/>
<path d="M583 1291 c-110 -41 -149 -84 -280 -317 -110 -194 -126 -240 -112
-306 22 -97 85 -137 217 -138 l82 0 0 -33 c0 -132 97 -232 219 -226 43 2 64
-2 90 -18 63 -40 145 -37 194 6 14 12 35 15 80 13 113 -5 191 65 210 186 l11
70 91 4 c82 3 95 6 128 31 62 47 90 131 67 201 -6 19 -58 118 -115 219 -113
199 -157 252 -245 295 l-55 27 -265 2 c-240 3 -270 1 -317 -16z m625 -59 c73
-39 114 -91 225 -288 115 -206 127 -243 91 -304 -28 -46 -63 -60 -153 -60
l-81 0 0 88 c0 88 -9 115 -36 105 -11 -4 -14 -36 -14 -152 0 -80 -5 -163 -10
-183 -15 -52 -53 -94 -104 -113 -61 -24 -110 -8 -180 56 l-56 51 -56 -51 c-70
-64 -119 -79 -179 -57 -49 19 -88 58 -104 105 -6 19 -11 99 -11 186 0 121 -3
154 -14 158 -27 10 -36 -17 -36 -105 l0 -88 -77 0 c-90 0 -132 19 -159 71 -29
56 -15 99 97 299 115 204 159 257 242 289 48 19 71 20 312 18 250 -2 262 -3
303 -25z m-280 -902 c17 -16 32 -32 32 -34 0 -2 -16 -10 -35 -16 -26 -9 -44
-9 -70 0 -19 6 -35 14 -35 16 0 6 64 63 70 63 3 0 20 -13 38 -29z"/>
<path d="M644 956 c-3 -8 -4 -25 -2 -38 2 -18 10 -24 35 -26 28 -3 33 1 39 23
4 15 1 31 -6 40 -16 19 -59 19 -66 1z"/>
<path d="M1070 956 c-6 -8 -10 -25 -8 -38 2 -19 9 -23 38 -23 29 0 36 4 38 23
4 28 -14 52 -38 52 -10 0 -23 -7 -30 -14z"/>
<path d="M801 744 c-33 -27 -48 -76 -37 -119 8 -30 88 -85 125 -85 35 0 120
57 127 86 11 42 -5 91 -37 118 -25 21 -41 26 -89 26 -48 0 -64 -5 -89 -26z
m145 -39 c33 -33 28 -63 -15 -92 -42 -28 -40 -28 -82 0 -45 30 -50 67 -13 96
36 29 79 27 110 -4z"/>
</g>
</svg>
